<svg class="svg-icon" style="width: 1em; height: 1em;vertical-align: middle;fill: currentColor;overflow: hidden;" viewBox="0 0 1024 1024" version="1.1" xmlns="http://www.w3.org/2000/svg"><path d="M638.464 512l137.216-137.216c35.328-35.328 35.328-92.16 0-127.488-35.328-35.328-92.16-35.328-127.488 0L510.464 384.512 376.32 249.856c-35.328-35.328-92.16-35.328-127.488 0-35.328 35.328-35.328 92.16 0 127.488L382.976 512l-134.144 134.144c-35.328 35.328-35.328 92.16 0 127.488 35.328 35.328 92.16 35.328 127.488 0l134.144-134.144 137.216 137.216c35.328 35.328 92.16 35.328 127.488 0 35.328-35.328 35.328-92.16 0-127.488L638.464 512z" fill="#8c90ef" /></svg>