<svg class="svg-icon" style="width: 1em; height: 1em;vertical-align: middle;fill: currentColor;overflow: hidden;" viewBox="0 0 1024 1024" version="1.1" xmlns="http://www.w3.org/2000/svg"><path d="M0 0h1024v1024H0z" fill="#F55F5F" /><path d="M346.88 764.3392a115.6096 115.6096 0 0 1-127.488 35.6608A136.5248 136.5248 0 0 1 128 671.1552v-169.8304C128 354.048 247.3984 234.6752 394.6752 234.6752c57.1136 14.208 99.7888 21.3248 128 21.3248 28.672 0 71.3472-7.1168 128-21.3248 147.2768 0 266.6496 119.3728 266.6496 266.6496v169.8304a136.5248 136.5248 0 0 1-91.392 128.8448 115.6096 115.6096 0 0 1-127.488-35.6608c-7.0144-8.5248-104.832-77.6704-175.7696-77.696-71.2704 0-168.7808 69.1712-175.7696 77.696z m63.7952-279.0144v-85.3248a16 16 0 0 0-32 0v85.3248h-85.3504a16 16 0 0 0 0 32h85.3504v85.3504a16 16 0 0 0 32 0v-85.3504h85.3248a16 16 0 1 0 0-32h-85.3248zM677.3248 448a32 32 0 1 0 0-64 32 32 0 0 0 0 64z m64 149.3248a32 32 0 1 0 0-64 32 32 0 0 0 0 64z" fill="#FFFFFF" /></svg>